<svg xmlns="http://www.w3.org/2000/svg" viewBox="0 0 512 512">
  <defs>
    <linearGradient id="bg" x1="64" y1="56" x2="448" y2="456" gradientUnits="userSpaceOnUse">
      <stop offset="0" stop-color="#12334a" />
      <stop offset="0.55" stop-color="#10263a" />
      <stop offset="1" stop-color="#091723" />
    </linearGradient>
    <linearGradient id="panel" x1="128" y1="120" x2="392" y2="392" gradientUnits="userSpaceOnUse">
      <stop offset="0" stop-color="#fff9ef" />
      <stop offset="1" stop-color="#ffe7b0" />
    </linearGradient>
  </defs>
  <rect width="512" height="512" rx="132" fill="url(#bg)" />
  <rect x="112" y="108" width="288" height="296" rx="92" fill="url(#panel)" />
  <path fill="#10263a" d="M174 146h79c34 0 57 7 72 21 12 12 19 28 19 48 0 27-14 47-38 58 33 11 51 34 51 68 0 24-9 43-28 56-18 13-43 19-75 19h-80zm74 103c27 0 42-10 42-29 0-18-14-27-39-27h-24v56zm8 114c33 0 49-11 49-33 0-20-15-31-47-31h-31v64z" />
  <path fill="#10263a" d="M336 164l48 48-48 48-18-18 18-18h-59v-24h59l-18-18z" />
  <path d="M146 106h62" stroke="#2dd4bf" stroke-width="10" stroke-linecap="round" />
</svg>
